<svg xmlns="http://www.w3.org/2000/svg" width="1000" height="470" viewBox="0 0 1000 470" role="img" aria-labelledby="integrations-dark-title integrations-dark-desc">
<title id="integrations-dark-title">Supported integration paths</title><desc id="integrations-dark-desc">Read graphify JSON, code-review-graph SQLite or manually registered nodes. Re-derive with local, optional OpenAI-compatible, or custom Python adapters.</desc>
<defs><linearGradient id="neon" gradientUnits="userSpaceOnUse" x1="0" y1="0" x2="1000" y2="400"><stop stop-color="#55c8ff"/><stop offset=".48" stop-color="#7489ff"/><stop offset="1" stop-color="#a879ff"/></linearGradient>
<radialGradient id="haze"><stop stop-color="#4e49c6" stop-opacity=".32"/><stop offset="1" stop-color="#050817" stop-opacity="0"/></radialGradient>
<filter id="glow" x="-100%" y="-100%" width="300%" height="300%"><feGaussianBlur stdDeviation="4"/></filter>
<pattern id="grid" width="40" height="40" patternUnits="userSpaceOnUse"><path d="M40 0H0V40" fill="none" stroke="#23355b" stroke-opacity=".4" stroke-width=".6"/></pattern>
<marker id="arrow" viewBox="0 0 10 10" refX="8" refY="5" markerWidth="6" markerHeight="6" orient="auto"><path d="m1 1 7 4-7 4" fill="none" stroke="#829aff" stroke-width="1.5"/></marker></defs>
<style>
text{font-family:Arial,'Noto Sans',sans-serif;fill:#eef2ff}.muted{fill:#91a1c6}.mono{font-family:ui-monospace,SFMono-Regular,Consolas,monospace}.panel{fill:#0b122b;stroke:#23355b;stroke-width:1}.wire{fill:none;stroke:#23355b;stroke-width:1.2}.active{fill:none;stroke:url(#neon);stroke-width:1.6}.flow{fill:none;stroke:#7ed9ff;stroke-width:2;stroke-dasharray:12 240;animation:flow 6s linear infinite}.glimmer{animation:glimmer 6s ease-in-out infinite}.gather{animation:gather 2.8s cubic-bezier(.2,.7,.2,1) both}.orbit{transform-box:fill-box;transform-origin:center;animation:orbit 40s linear infinite}@keyframes flow{to{stroke-dashoffset:-504}}@keyframes glimmer{0%,100%{opacity:.3}45%,65%{opacity:1}}@keyframes gather{from{opacity:0;transform:translateY(16px) scale(.95)}to{opacity:1;transform:none}}@keyframes orbit{to{transform:rotate(360deg)}}@media(prefers-reduced-motion:reduce){*{animation:none!important}.flow{display:none}}
</style><rect width="1000" height="470" rx="16" fill="#050817"/><rect width="1000" height="470" rx="16" fill="url(#grid)"/><ellipse cx="580.0" cy="188.0" rx="520.0" ry="338.4" fill="url(#haze)"/>
<text x="40" y="46" font-size="12" class="muted mono" letter-spacing="2">FIT INTO THE GRAPH YOU ALREADY HAVE</text><text x="40" y="88" font-size="30" class="" font-weight="600">Your graph. Your re-derivation.</text><ellipse cx="500" cy="280" rx="215" ry="146" class="wire"/><ellipse cx="500" cy="280" rx="177" ry="122" class="wire" stroke-dasharray="2 10"/><g class="orbit" aria-hidden="true"><ellipse cx="500" cy="280" rx="180" ry="180" fill="none"/><circle cx="500" cy="100" r="4" fill="#819fff"/></g><path d="M288 177H360Q372 177 372 189V236Q372 248 384 248H424" class="active" marker-end="url(#arrow)"/><path d="M288 177H360Q372 177 372 189V236Q372 248 384 248H424" class="flow" aria-hidden="true"/><path d="M288 280H424" class="active" marker-end="url(#arrow)"/><path d="M288 280H424" class="flow" aria-hidden="true"/><path d="M288 383H360Q372 383 372 371V324Q372 312 384 312H424" class="active" marker-end="url(#arrow)"/><path d="M288 383H360Q372 383 372 371V324Q372 312 384 312H424" class="flow" aria-hidden="true"/><path d="M576 248H616Q628 248 628 236V189Q628 177 640 177H712" class="active" marker-end="url(#arrow)"/><path d="M576 248H616Q628 248 628 236V189Q628 177 640 177H712" class="flow" aria-hidden="true"/><path d="M576 280H712" class="active" marker-end="url(#arrow)"/><path d="M576 280H712" class="flow" aria-hidden="true"/><path d="M576 312H616Q628 312 628 324V371Q628 383 640 383H712" class="active" marker-end="url(#arrow)"/><path d="M576 312H616Q628 312 628 324V371Q628 383 640 383H712" class="flow" aria-hidden="true"/><circle cx="500" cy="280" r="91" fill="url(#haze)"/><circle cx="500" cy="280" r="76" class="panel"/><circle cx="500" cy="280" r="76" fill="none" stroke="url(#neon)"/><text x="500" y="276" font-size="24" class="" text-anchor="middle" font-weight="700">DirtyGraph</text><text x="500" y="302" font-size="12" class="muted mono" text-anchor="middle">dirty → rederive</text><rect x="40" y="141" width="248" height="72" rx="10" class="panel"/><text x="60" y="173" font-size="20" class="" font-weight="600">graphify</text><text x="60" y="198" font-size="13" class="muted mono" >node-link JSON</text><rect x="40" y="244" width="248" height="72" rx="10" class="panel"/><text x="60" y="276" font-size="20" class="" font-weight="600">code-review-graph</text><text x="60" y="301" font-size="13" class="muted mono" >SQLite</text><rect x="40" y="347" width="248" height="72" rx="10" class="panel"/><text x="60" y="379" font-size="20" class="" font-weight="600">Manual wiring</text><text x="60" y="404" font-size="13" class="muted mono" >add / link</text><rect x="712" y="141" width="248" height="72" rx="10" class="panel"/><text x="732" y="173" font-size="20" class="" font-weight="600">Local</text><text x="732" y="198" font-size="13" class="muted mono" >echo / codegraph</text><rect x="712" y="244" width="248" height="72" rx="10" class="panel"/><text x="732" y="276" font-size="20" class="" font-weight="600">OpenAI-compatible</text><text x="732" y="301" font-size="13" class="muted mono" >DeepSeek / Qwen config</text><rect x="712" y="347" width="248" height="72" rx="10" class="panel"/><text x="732" y="379" font-size="20" class="" font-weight="600">Custom adapter</text><text x="732" y="404" font-size="13" class="muted mono" >Python · re_derive()</text></svg>